<?xml version="1.0" encoding="UTF-8" standalone="no"?><!DOCTYPE svg PUBLIC "-//W3C//DTD SVG 1.1//EN" "http://www.w3.org/Graphics/SVG/1.1/DTD/svg11.dtd"><svg width="100%" height="100%" viewBox="0 0 503 52" version="1.1" xmlns="http://www.w3.org/2000/svg" xmlns:xlink="http://www.w3.org/1999/xlink" xml:space="preserve" xmlns:serif="http://www.serif.com/" style="fill-rule:evenodd;clip-rule:evenodd;stroke-linejoin:round;stroke-miterlimit:2;"><path d="M0,25.488c0,-3.12 0.54,-6.18 1.62,-9.18c1.08,-3 2.664,-5.736 4.752,-8.208c2.088,-2.472 4.644,-4.44 7.668,-5.904c3.024,-1.464 6.456,-2.196 10.296,-2.196c4.56,0 8.472,1.044 11.736,3.132c3.264,2.088 5.688,4.764 7.272,8.028l-5.112,3.312c-1.008,-2.16 -2.292,-3.876 -3.852,-5.148c-1.56,-1.272 -3.24,-2.172 -5.04,-2.7c-1.8,-0.528 -3.564,-0.792 -5.292,-0.792c-2.832,-0 -5.34,0.576 -7.524,1.728c-2.184,1.152 -4.02,2.688 -5.508,4.608c-1.488,1.92 -2.604,4.068 -3.348,6.444c-0.744,2.376 -1.116,4.764 -1.116,7.164c0,2.64 0.444,5.184 1.332,7.632c0.888,2.448 2.124,4.608 3.708,6.48c1.584,1.872 3.456,3.36 5.616,4.464c2.16,1.104 4.512,1.656 7.056,1.656c1.776,-0 3.6,-0.312 5.472,-0.936c1.872,-0.624 3.624,-1.596 5.256,-2.916c1.632,-1.32 2.928,-3.036 3.888,-5.148l5.4,2.952c-1.056,2.544 -2.688,4.704 -4.896,6.48c-2.208,1.776 -4.668,3.12 -7.38,4.032c-2.712,0.912 -5.388,1.368 -8.028,1.368c-3.504,-0 -6.72,-0.756 -9.648,-2.268c-2.928,-1.512 -5.46,-3.528 -7.596,-6.048c-2.136,-2.52 -3.792,-5.352 -4.968,-8.496c-1.176,-3.144 -1.764,-6.324 -1.764,-9.54Z" style="fill-rule:nonzero;"/><path d="M72.576,51.84c-3.6,-0 -6.864,-0.72 -9.792,-2.16c-2.928,-1.44 -5.46,-3.396 -7.596,-5.868c-2.136,-2.472 -3.78,-5.256 -4.932,-8.352c-1.152,-3.096 -1.728,-6.276 -1.728,-9.54c0,-3.408 0.612,-6.66 1.836,-9.756c1.224,-3.096 2.928,-5.856 5.112,-8.28c2.184,-2.424 4.74,-4.344 7.668,-5.76c2.928,-1.416 6.12,-2.124 9.576,-2.124c3.6,-0 6.864,0.744 9.792,2.232c2.928,1.488 5.448,3.48 7.56,5.976c2.112,2.496 3.744,5.28 4.896,8.352c1.152,3.072 1.728,6.216 1.728,9.432c0,3.408 -0.6,6.66 -1.8,9.756c-1.2,3.096 -2.892,5.856 -5.076,8.28c-2.184,2.424 -4.74,4.332 -7.668,5.724c-2.928,1.392 -6.12,2.088 -9.576,2.088Zm-17.496,-25.92c0,2.592 0.42,5.1 1.26,7.524c0.84,2.424 2.028,4.572 3.564,6.444c1.536,1.872 3.384,3.36 5.544,4.464c2.16,1.104 4.56,1.656 7.2,1.656c2.736,-0 5.184,-0.576 7.344,-1.728c2.16,-1.152 3.996,-2.688 5.508,-4.608c1.512,-1.92 2.664,-4.08 3.456,-6.48c0.792,-2.4 1.188,-4.824 1.188,-7.272c0,-2.592 -0.42,-5.088 -1.26,-7.488c-0.84,-2.4 -2.04,-4.548 -3.6,-6.444c-1.56,-1.896 -3.408,-3.384 -5.544,-4.464c-2.136,-1.08 -4.5,-1.62 -7.092,-1.62c-2.736,-0 -5.184,0.564 -7.344,1.692c-2.16,1.128 -3.996,2.652 -5.508,4.572c-1.512,1.92 -2.676,4.068 -3.492,6.444c-0.816,2.376 -1.224,4.812 -1.224,7.308Z" style="fill-rule:nonzero;"/><path d="M105.696,51.48l0,-51.12l21.888,-0c2.256,-0 4.32,0.468 6.192,1.404c1.872,0.936 3.504,2.184 4.896,3.744c1.392,1.56 2.472,3.312 3.24,5.256c0.768,1.944 1.152,3.924 1.152,5.94c0,2.352 -0.444,4.584 -1.332,6.696c-0.888,2.112 -2.136,3.912 -3.744,5.4c-1.608,1.488 -3.492,2.52 -5.652,3.096l12.384,19.584l-7.344,-0l-11.664,-18.36l-13.536,-0l-0,18.36l-6.48,-0Zm6.48,-24.12l15.48,-0c1.776,-0 3.324,-0.492 4.644,-1.476c1.32,-0.984 2.352,-2.292 3.096,-3.924c0.744,-1.632 1.116,-3.384 1.116,-5.256c-0,-1.92 -0.432,-3.684 -1.296,-5.292c-0.864,-1.608 -1.992,-2.892 -3.384,-3.852c-1.392,-0.96 -2.928,-1.44 -4.608,-1.44l-15.048,-0l-0,21.24Z" style="fill-rule:nonzero;"/><path d="M153,51.48l0,-51.12l21.312,-0c2.256,-0 4.32,0.468 6.192,1.404c1.872,0.936 3.504,2.184 4.896,3.744c1.392,1.56 2.472,3.312 3.24,5.256c0.768,1.944 1.152,3.924 1.152,5.94c-0,2.784 -0.624,5.436 -1.872,7.956c-1.248,2.52 -3,4.56 -5.256,6.12c-2.256,1.56 -4.896,2.34 -7.92,2.34l-15.264,-0l0,18.36l-6.48,-0Zm6.48,-24.12l14.904,-0c1.776,-0 3.324,-0.48 4.644,-1.44c1.32,-0.96 2.352,-2.256 3.096,-3.888c0.744,-1.632 1.116,-3.408 1.116,-5.328c0,-2.016 -0.432,-3.828 -1.296,-5.436c-0.864,-1.608 -1.992,-2.868 -3.384,-3.78c-1.392,-0.912 -2.928,-1.368 -4.608,-1.368l-14.472,-0l0,21.24Z" style="fill-rule:nonzero;"/><path d="M218.592,51.84c-3.6,-0 -6.864,-0.72 -9.792,-2.16c-2.928,-1.44 -5.46,-3.396 -7.596,-5.868c-2.136,-2.472 -3.78,-5.256 -4.932,-8.352c-1.152,-3.096 -1.728,-6.276 -1.728,-9.54c-0,-3.408 0.612,-6.66 1.836,-9.756c1.224,-3.096 2.928,-5.856 5.112,-8.28c2.184,-2.424 4.74,-4.344 7.668,-5.76c2.928,-1.416 6.12,-2.124 9.576,-2.124c3.6,-0 6.864,0.744 9.792,2.232c2.928,1.488 5.448,3.48 7.56,5.976c2.112,2.496 3.744,5.28 4.896,8.352c1.152,3.072 1.728,6.216 1.728,9.432c-0,3.408 -0.6,6.66 -1.8,9.756c-1.2,3.096 -2.892,5.856 -5.076,8.28c-2.184,2.424 -4.74,4.332 -7.668,5.724c-2.928,1.392 -6.12,2.088 -9.576,2.088Zm-17.496,-25.92c0,2.592 0.42,5.1 1.26,7.524c0.84,2.424 2.028,4.572 3.564,6.444c1.536,1.872 3.384,3.36 5.544,4.464c2.16,1.104 4.56,1.656 7.2,1.656c2.736,-0 5.184,-0.576 7.344,-1.728c2.16,-1.152 3.996,-2.688 5.508,-4.608c1.512,-1.92 2.664,-4.08 3.456,-6.48c0.792,-2.4 1.188,-4.824 1.188,-7.272c0,-2.592 -0.42,-5.088 -1.26,-7.488c-0.84,-2.4 -2.04,-4.548 -3.6,-6.444c-1.56,-1.896 -3.408,-3.384 -5.544,-4.464c-2.136,-1.08 -4.5,-1.62 -7.092,-1.62c-2.736,-0 -5.184,0.564 -7.344,1.692c-2.16,1.128 -3.996,2.652 -5.508,4.572c-1.512,1.92 -2.676,4.068 -3.492,6.444c-0.816,2.376 -1.224,4.812 -1.224,7.308Z" style="fill-rule:nonzero;"/><path d="M251.712,51.48l-0,-51.12l21.888,-0c2.256,-0 4.32,0.468 6.192,1.404c1.872,0.936 3.504,2.184 4.896,3.744c1.392,1.56 2.472,3.312 3.24,5.256c0.768,1.944 1.152,3.924 1.152,5.94c-0,2.352 -0.444,4.584 -1.332,6.696c-0.888,2.112 -2.136,3.912 -3.744,5.4c-1.608,1.488 -3.492,2.52 -5.652,3.096l12.384,19.584l-7.344,-0l-11.664,-18.36l-13.536,-0l-0,18.36l-6.48,-0Zm6.48,-24.12l15.48,-0c1.776,-0 3.324,-0.492 4.644,-1.476c1.32,-0.984 2.352,-2.292 3.096,-3.924c0.744,-1.632 1.116,-3.384 1.116,-5.256c-0,-1.92 -0.432,-3.684 -1.296,-5.292c-0.864,-1.608 -1.992,-2.892 -3.384,-3.852c-1.392,-0.96 -2.928,-1.44 -4.608,-1.44l-15.048,-0l-0,21.24Z" style="fill-rule:nonzero;"/><path d="M314.568,0.36l5.472,-0l20.88,51.12l-6.912,-0l-7.662,-20.016l-18.123,-0l-7.695,20.016l-6.912,-0l20.952,-51.12Zm11.778,31.104l-9.042,-23.616l-9.081,23.616l18.123,-0Z" style="fill-rule:nonzero;"/><path d="M379.8,6.12l-17.64,-0l-0,45.36l-6.48,-0l-0,-45.36l-17.64,-0l-0,-5.76l41.76,-0l-0,5.76Z" style="fill-rule:nonzero;"/><rect x="387.144" y="0.36" width="6.48" height="51.12" style="fill-rule:nonzero;"/><path d="M426.6,51.84c-3.6,-0 -6.864,-0.72 -9.792,-2.16c-2.928,-1.44 -5.46,-3.396 -7.596,-5.868c-2.136,-2.472 -3.78,-5.256 -4.932,-8.352c-1.152,-3.096 -1.728,-6.276 -1.728,-9.54c0,-3.408 0.612,-6.66 1.836,-9.756c1.224,-3.096 2.928,-5.856 5.112,-8.28c2.184,-2.424 4.74,-4.344 7.668,-5.76c2.928,-1.416 6.12,-2.124 9.576,-2.124c3.6,-0 6.864,0.744 9.792,2.232c2.928,1.488 5.448,3.48 7.56,5.976c2.112,2.496 3.744,5.28 4.896,8.352c1.152,3.072 1.728,6.216 1.728,9.432c-0,3.408 -0.6,6.66 -1.8,9.756c-1.2,3.096 -2.892,5.856 -5.076,8.28c-2.184,2.424 -4.74,4.332 -7.668,5.724c-2.928,1.392 -6.12,2.088 -9.576,2.088Zm-17.496,-25.92c0,2.592 0.42,5.1 1.26,7.524c0.84,2.424 2.028,4.572 3.564,6.444c1.536,1.872 3.384,3.36 5.544,4.464c2.16,1.104 4.56,1.656 7.2,1.656c2.736,-0 5.184,-0.576 7.344,-1.728c2.16,-1.152 3.996,-2.688 5.508,-4.608c1.512,-1.92 2.664,-4.08 3.456,-6.48c0.792,-2.4 1.188,-4.824 1.188,-7.272c0,-2.592 -0.42,-5.088 -1.26,-7.488c-0.84,-2.4 -2.04,-4.548 -3.6,-6.444c-1.56,-1.896 -3.408,-3.384 -5.544,-4.464c-2.136,-1.08 -4.5,-1.62 -7.092,-1.62c-2.736,-0 -5.184,0.564 -7.344,1.692c-2.16,1.128 -3.996,2.652 -5.508,4.572c-1.512,1.92 -2.676,4.068 -3.492,6.444c-0.816,2.376 -1.224,4.812 -1.224,7.308Z" style="fill-rule:nonzero;"/><path d="M466.2,12.312l0,39.168l-6.48,-0l0,-51.12l5.472,-0l31.248,39.96l0,-39.888l6.48,-0l0,51.048l-5.904,-0l-30.816,-39.168Z" style="fill-rule:nonzero;"/><circle cx="24.192" cy="25.92" r="4"/><circle cx="72.612" cy="25.92" r="4"/><circle cx="218.628" cy="25.92" r="4"/><circle cx="426.961" cy="25.92" r="4"/></svg>