<?xml version="1.0" encoding="UTF-8" standalone="no"?><!DOCTYPE svg PUBLIC "-//W3C//DTD SVG 1.1//EN" "http://www.w3.org/Graphics/SVG/1.1/DTD/svg11.dtd"><svg width="100%" height="100%" viewBox="0 0 512 512" version="1.1" xmlns="http://www.w3.org/2000/svg" xmlns:xlink="http://www.w3.org/1999/xlink" xml:space="preserve" xmlns:serif="http://www.serif.com/" style="fill-rule:evenodd;clip-rule:evenodd;stroke-linecap:round;stroke-linejoin:round;stroke-miterlimit:1.5;"><path d="M256,144.606c162.528,0 239.972,169.583 239.972,169.583c-0,0 -65.189,146.882 -239.972,146.882c-174.756,0 -239.972,-146.882 -239.972,-146.882c0,0 77.444,-169.583 239.972,-169.583Z" style="fill:none;stroke:#fff;stroke-width:30px;"/><ellipse cx="256" cy="302.839" rx="74.519" ry="116.285" style="fill:none;stroke:#fff;stroke-width:30px;"/><path d="M256,131.22l0,-80.572" style="fill:none;stroke:#fff;stroke-width:30px;"/><g><path d="M352.277,151.221l35.2,-73.962" style="fill:none;stroke:#fff;stroke-width:30px;"/><path d="M430.693,206.102l65.279,-50.453" style="fill:none;stroke:#fff;stroke-width:30px;"/></g><g><path d="M159.723,151.221l-35.2,-73.962" style="fill:none;stroke:#fff;stroke-width:30px;"/><path d="M81.307,206.102l-65.279,-50.453" style="fill:none;stroke:#fff;stroke-width:30px;"/></g><g><path d="M181.481,302.839c0,-0 74.519,-0 74.519,-105.375" style="fill:none;stroke:#fff;stroke-width:30px;"/><path d="M181.481,302.839c0,-0 74.519,-0 74.519,105.374" style="fill:none;stroke:#fff;stroke-width:30px;"/><path d="M330.519,302.839c-0,-0 -74.519,-0 -74.519,-105.375" style="fill:none;stroke:#fff;stroke-width:30px;"/><path d="M330.519,302.839c-0,-0 -74.519,-0 -74.519,105.374" style="fill:none;stroke:#fff;stroke-width:30px;"/></g></svg>