<?xml version="1.0" encoding="UTF-8" standalone="no"?><!DOCTYPE svg PUBLIC "-//W3C//DTD SVG 1.1//EN" "http://www.w3.org/Graphics/SVG/1.1/DTD/svg11.dtd"><svg width="100%" height="100%" viewBox="0 0 1005 125" version="1.1" xmlns="http://www.w3.org/2000/svg" xmlns:xlink="http://www.w3.org/1999/xlink" xml:space="preserve" xmlns:serif="http://www.serif.com/" style="fill-rule:evenodd;clip-rule:evenodd;stroke-linejoin:round;stroke-miterlimit:2;"><g><path d="M35.526,24.198l-13.704,0l0,-4.784c0,-3.017 -0.13,-4.905 -0.39,-5.664c-0.261,-0.76 -0.879,-1.139 -1.856,-1.139c-0.846,-0 -1.421,0.325 -1.725,0.976c-0.304,0.651 -0.456,2.322 -0.456,5.013l0,25.291c0,2.366 0.152,3.923 0.456,4.671c0.304,0.749 0.912,1.123 1.823,1.123c0.998,0 1.676,-0.423 2.034,-1.269c0.358,-0.847 0.537,-2.496 0.537,-4.948l0,-6.249l-2.766,-0l-0,-8.008l16.047,0l-0,28.286l-8.612,0l-1.267,-3.776c-0.934,1.628 -2.112,2.849 -3.534,3.662c-1.423,0.814 -3.1,1.221 -5.033,1.221c-2.302,0 -4.458,-0.559 -6.466,-1.676c-2.009,-1.118 -3.534,-2.501 -4.577,-4.15c-1.042,-1.65 -1.694,-3.38 -1.954,-5.192c-0.261,-1.812 -0.391,-4.53 -0.391,-8.154l-0,-15.657c-0,-5.034 0.271,-8.691 0.814,-10.969c0.542,-2.279 2.099,-4.367 4.671,-6.266c2.571,-1.899 5.897,-2.848 9.976,-2.848c4.015,-0 7.346,0.824 9.993,2.474c2.648,1.649 4.373,3.607 5.176,5.875c0.802,2.268 1.204,5.561 1.204,9.879l-0,2.278Z" style="fill:#fff;fill-rule:nonzero;"/><rect x="40.832" y="4.799" width="13.704" height="52.699" style="fill:#fff;fill-rule:nonzero;"/><path d="M92.619,4.799l-6.974,52.698l-20.816,0l-7.918,-52.698l14.453,-0c1.679,14.516 2.878,26.798 3.596,36.846c0.708,-10.155 1.46,-19.171 2.255,-27.047l0.952,-9.799l14.452,-0Z" style="fill:#fff;fill-rule:nonzero;"/><path d="M94.93,4.799l22.85,-0l0,10.546l-9.146,-0l-0,9.993l8.56,-0l0,10.025l-8.56,0l-0,11.588l10.058,0l-0,10.546l-23.762,0l0,-52.698Z" style="fill:#fff;fill-rule:nonzero;"/><path d="M165.531,4.799l0,35.219c0,3.993 -0.13,6.797 -0.39,8.414c-0.261,1.617 -1.031,3.277 -2.311,4.98c-1.281,1.704 -2.968,2.995 -5.062,3.874c-2.094,0.879 -4.562,1.318 -7.405,1.318c-3.147,0 -5.924,-0.521 -8.333,-1.562c-2.409,-1.042 -4.21,-2.398 -5.403,-4.069c-1.194,-1.671 -1.899,-3.434 -2.116,-5.29c-0.217,-1.855 -0.325,-5.756 -0.325,-11.701l-0,-31.183l13.703,-0l0,39.515c0,2.301 0.125,3.771 0.375,4.411c0.249,0.64 0.754,0.96 1.513,0.96c0.868,0 1.427,-0.352 1.676,-1.058c0.25,-0.705 0.375,-2.37 0.375,-4.996l-0,-38.832l13.703,-0Z" style="fill:#fff;fill-rule:nonzero;"/><path d="M199.872,20.748l-12.727,0l-0,-3.906c-0,-1.823 -0.163,-2.984 -0.489,-3.483c-0.325,-0.499 -0.868,-0.748 -1.627,-0.748c-0.825,-0 -1.449,0.336 -1.872,1.009c-0.423,0.674 -0.634,1.694 -0.634,3.062c-0,1.759 0.237,3.084 0.713,3.974c0.454,0.89 1.745,1.964 3.873,3.222c6.1,3.621 9.942,6.592 11.526,8.914c1.584,2.322 2.376,6.065 2.376,11.23c0,3.754 -0.439,6.52 -1.318,8.3c-0.879,1.779 -2.577,3.271 -5.094,4.475c-2.518,1.205 -5.447,1.807 -8.789,1.807c-3.667,0 -6.797,-0.694 -9.391,-2.083c-2.593,-1.389 -4.291,-3.158 -5.094,-5.306c-0.803,-2.148 -1.204,-5.197 -1.204,-9.146l-0,-3.451l12.727,0l0,6.413c0,1.974 0.179,3.244 0.537,3.808c0.358,0.564 0.993,0.846 1.904,0.846c0.912,0 1.59,-0.358 2.035,-1.074c0.445,-0.716 0.667,-1.779 0.667,-3.19c0,-3.103 -0.423,-5.132 -1.269,-6.087c-0.868,-0.955 -3.006,-2.549 -6.413,-4.785c-3.407,-2.256 -5.664,-3.895 -6.77,-4.915c-1.107,-1.02 -2.024,-2.43 -2.751,-4.231c-0.727,-1.801 -1.09,-4.102 -1.09,-6.901c-0,-4.036 0.515,-6.987 1.546,-8.853c1.031,-1.867 2.696,-3.326 4.996,-4.378c2.301,-1.053 5.078,-1.579 8.333,-1.579c3.559,-0 6.592,0.575 9.098,1.725c2.506,1.15 4.166,2.599 4.98,4.345c0.814,1.747 1.221,4.715 1.221,8.903l-0,2.083Z" style="fill:#fff;fill-rule:nonzero;"/><path d="M246.256,4.799l-9.993,33.624l-0,19.074l-12.695,0l0,-19.074l-9.634,-33.624l12.588,-0c1.968,10.286 3.077,17.208 3.329,20.767c0.759,-5.623 2.031,-12.545 3.816,-20.767l12.589,-0Z" style="fill:#fff;fill-rule:nonzero;"/><path d="M279.913,35.656c-0,5.295 -0.125,9.044 -0.375,11.246c-0.249,2.203 -1.03,4.215 -2.343,6.038c-1.313,1.823 -3.087,3.223 -5.322,4.199c-2.235,0.977 -4.839,1.465 -7.812,1.465c-2.821,0 -5.355,-0.461 -7.601,-1.383c-2.246,-0.923 -4.052,-2.306 -5.419,-4.151c-1.367,-1.844 -2.181,-3.851 -2.442,-6.021c-0.26,-2.17 -0.39,-5.968 -0.39,-11.393l-0,-9.016c-0,-5.295 0.125,-9.044 0.374,-11.246c0.25,-2.203 1.031,-4.216 2.344,-6.038c1.313,-1.823 3.087,-3.223 5.322,-4.199c2.235,-0.977 4.839,-1.465 7.812,-1.465c2.821,-0 5.354,0.461 7.6,1.383c2.246,0.922 4.053,2.306 5.42,4.15c1.367,1.845 2.181,3.852 2.441,6.022c0.261,2.17 0.391,5.968 0.391,11.393l-0,9.016Zm-13.704,-17.317c0,-2.452 -0.136,-4.02 -0.407,-4.703c-0.271,-0.684 -0.83,-1.025 -1.676,-1.025c-0.716,-0 -1.264,0.276 -1.644,0.83c-0.38,0.553 -0.57,2.186 -0.57,4.898l0,24.608c0,3.06 0.125,4.948 0.375,5.664c0.249,0.716 0.83,1.074 1.741,1.074c0.933,0 1.53,-0.412 1.791,-1.237c0.26,-0.824 0.39,-2.788 0.39,-5.891l0,-24.218Z" style="fill:#fff;fill-rule:nonzero;"/><path d="M316.174,4.799l-0,35.219c-0,3.993 -0.131,6.797 -0.391,8.414c-0.26,1.617 -1.031,3.277 -2.311,4.98c-1.28,1.704 -2.968,2.995 -5.062,3.874c-2.094,0.879 -4.562,1.318 -7.405,1.318c-3.146,0 -5.924,-0.521 -8.333,-1.562c-2.408,-1.042 -4.209,-2.398 -5.403,-4.069c-1.193,-1.671 -1.899,-3.434 -2.116,-5.29c-0.217,-1.855 -0.325,-5.756 -0.325,-11.701l-0,-31.183l13.703,-0l0,39.515c0,2.301 0.125,3.771 0.375,4.411c0.249,0.64 0.754,0.96 1.513,0.96c0.868,0 1.427,-0.352 1.677,-1.058c0.249,-0.705 0.374,-2.37 0.374,-4.996l0,-38.832l13.704,-0Z" style="fill:#fff;fill-rule:nonzero;"/><path d="M321.479,4.799l9.7,-0c6.467,-0 10.845,0.249 13.134,0.748c2.29,0.499 4.156,1.774 5.599,3.825c1.443,2.051 2.165,5.322 2.165,9.814c-0,4.101 -0.51,6.857 -1.53,8.267c-1.02,1.411 -3.028,2.257 -6.022,2.539c2.712,0.673 4.535,1.574 5.468,2.702c0.933,1.128 1.514,2.165 1.742,3.109c0.228,0.944 0.342,3.542 0.342,7.795l-0,13.899l-12.728,0l0,-17.512c0,-2.821 -0.222,-4.568 -0.667,-5.24c-0.445,-0.673 -1.611,-1.009 -3.499,-1.009l-0,23.761l-13.704,0l0,-52.698Zm13.704,9.016l-0,11.718c1.541,0 2.62,-0.212 3.239,-0.635c0.618,-0.423 0.927,-1.795 0.927,-4.117l0,-2.897c0,-1.671 -0.298,-2.767 -0.895,-3.288c-0.596,-0.521 -1.687,-0.781 -3.271,-0.781Z" style="fill:#fff;fill-rule:nonzero;"/><path d="M398.168,20.748l-12.728,0l0,-3.906c0,-1.823 -0.162,-2.984 -0.488,-3.483c-0.325,-0.499 -0.868,-0.748 -1.627,-0.748c-0.825,-0 -1.449,0.336 -1.872,1.009c-0.423,0.674 -0.635,1.694 -0.635,3.062c0,1.759 0.238,3.084 0.714,3.974c0.454,0.89 1.745,1.964 3.872,3.222c6.1,3.621 9.943,6.592 11.527,8.914c1.584,2.322 2.376,6.065 2.376,11.23c-0,3.754 -0.44,6.52 -1.318,8.3c-0.879,1.779 -2.577,3.271 -5.095,4.475c-2.517,1.205 -5.446,1.807 -8.788,1.807c-3.667,0 -6.798,-0.694 -9.391,-2.083c-2.593,-1.389 -4.291,-3.158 -5.094,-5.306c-0.803,-2.148 -1.204,-5.197 -1.204,-9.146l-0,-3.451l12.727,0l-0,6.413c-0,1.974 0.179,3.244 0.537,3.808c0.358,0.564 0.993,0.846 1.904,0.846c0.911,0 1.59,-0.358 2.034,-1.074c0.445,-0.716 0.668,-1.779 0.668,-3.19c-0,-3.103 -0.423,-5.132 -1.27,-6.087c-0.868,-0.955 -3.005,-2.549 -6.412,-4.785c-3.407,-2.256 -5.664,-3.895 -6.771,-4.915c-1.106,-1.02 -2.023,-2.43 -2.75,-4.231c-0.727,-1.801 -1.09,-4.102 -1.09,-6.901c-0,-4.036 0.515,-6.987 1.546,-8.853c1.03,-1.867 2.696,-3.326 4.996,-4.378c2.3,-1.053 5.078,-1.579 8.333,-1.579c3.559,-0 6.591,0.575 9.098,1.725c2.506,1.15 4.166,2.599 4.98,4.345c0.814,1.747 1.221,4.715 1.221,8.903l-0,2.083Z" style="fill:#fff;fill-rule:nonzero;"/><path d="M434.917,35.656c-0,5.295 -0.125,9.044 -0.375,11.246c-0.249,2.203 -1.03,4.215 -2.343,6.038c-1.313,1.823 -3.087,3.223 -5.322,4.199c-2.235,0.977 -4.839,1.465 -7.812,1.465c-2.821,0 -5.355,-0.461 -7.601,-1.383c-2.246,-0.923 -4.052,-2.306 -5.419,-4.151c-1.367,-1.844 -2.181,-3.851 -2.442,-6.021c-0.26,-2.17 -0.39,-5.968 -0.39,-11.393l-0,-9.016c-0,-5.295 0.125,-9.044 0.374,-11.246c0.25,-2.203 1.031,-4.216 2.344,-6.038c1.313,-1.823 3.087,-3.223 5.322,-4.199c2.235,-0.977 4.839,-1.465 7.812,-1.465c2.821,-0 5.354,0.461 7.6,1.383c2.246,0.922 4.053,2.306 5.42,4.15c1.367,1.845 2.181,3.852 2.441,6.022c0.261,2.17 0.391,5.968 0.391,11.393l-0,9.016Zm-13.704,-17.317c0,-2.452 -0.136,-4.02 -0.407,-4.703c-0.271,-0.684 -0.83,-1.025 -1.676,-1.025c-0.716,-0 -1.264,0.276 -1.644,0.83c-0.38,0.553 -0.57,2.186 -0.57,4.898l0,24.608c0,3.06 0.125,4.948 0.375,5.664c0.249,0.716 0.83,1.074 1.741,1.074c0.933,0 1.53,-0.412 1.791,-1.237c0.26,-0.824 0.39,-2.788 0.39,-5.891l0,-24.218Z" style="fill:#fff;fill-rule:nonzero;"/><path d="M471.178,4.799l-0,35.219c-0,3.993 -0.131,6.797 -0.391,8.414c-0.26,1.617 -1.031,3.277 -2.311,4.98c-1.28,1.704 -2.968,2.995 -5.062,3.874c-2.094,0.879 -4.562,1.318 -7.405,1.318c-3.146,0 -5.924,-0.521 -8.333,-1.562c-2.408,-1.042 -4.209,-2.398 -5.403,-4.069c-1.193,-1.671 -1.899,-3.434 -2.116,-5.29c-0.217,-1.855 -0.325,-5.756 -0.325,-11.701l-0,-31.183l13.703,-0l0,39.515c0,2.301 0.125,3.771 0.375,4.411c0.249,0.64 0.754,0.96 1.513,0.96c0.868,0 1.427,-0.352 1.677,-1.058c0.249,-0.705 0.374,-2.37 0.374,-4.996l0,-38.832l13.704,-0Z" style="fill:#fff;fill-rule:nonzero;"/><path d="M490.187,4.799l-0,42.152l8.333,0l-0,10.546l-22.037,0l0,-52.698l13.704,-0Z" style="fill:#fff;fill-rule:nonzero;"/></g><g><path d="M537.738,24.198l-13.704,0l-0,-4.784c-0,-3.017 -0.13,-4.905 -0.391,-5.664c-0.26,-0.76 -0.879,-1.139 -1.855,-1.139c-0.846,-0 -1.421,0.325 -1.725,0.976c-0.304,0.651 -0.456,2.322 -0.456,5.013l0,25.291c0,2.366 0.152,3.923 0.456,4.671c0.304,0.749 0.911,1.123 1.823,1.123c0.998,0 1.676,-0.423 2.034,-1.269c0.358,-0.847 0.537,-2.496 0.537,-4.948l0,-6.249l-2.767,-0l0,-8.008l16.048,0l-0,28.286l-8.612,0l-1.267,-3.776c-0.934,1.628 -2.112,2.849 -3.535,3.662c-1.422,0.814 -3.1,1.221 -5.032,1.221c-2.302,0 -4.458,-0.559 -6.467,-1.676c-2.008,-1.118 -3.534,-2.501 -4.576,-4.15c-1.043,-1.65 -1.694,-3.38 -1.955,-5.192c-0.26,-1.812 -0.391,-4.53 -0.391,-8.154l0,-15.657c0,-5.034 0.272,-8.691 0.814,-10.969c0.543,-2.279 2.1,-4.367 4.671,-6.266c2.572,-1.899 5.897,-2.848 9.977,-2.848c4.014,-0 7.345,0.824 9.993,2.474c2.647,1.649 4.372,3.607 5.175,5.875c0.803,2.268 1.205,5.561 1.205,9.879l-0,2.278Z" style="fill:#f00;fill-rule:nonzero;"/><rect x="543.043" y="4.799" width="13.704" height="52.699" style="fill:#f00;fill-rule:nonzero;"/><path d="M594.831,4.799l-6.974,52.698l-20.816,0l-7.918,-52.698l14.452,-0c1.68,14.516 2.879,26.798 3.597,36.846c0.708,-10.155 1.46,-19.171 2.255,-27.047l0.951,-9.799l14.453,-0Z" style="fill:#f00;fill-rule:nonzero;"/><path d="M597.142,4.799l22.85,-0l-0,10.546l-9.147,-0l0,9.993l8.561,-0l-0,10.025l-8.561,0l0,11.588l10.058,0l0,10.546l-23.761,0l-0,-52.698Z" style="fill:#f00;fill-rule:nonzero;"/><path d="M667.743,4.799l0,35.219c0,3.993 -0.13,6.797 -0.391,8.414c-0.26,1.617 -1.03,3.277 -2.311,4.98c-1.28,1.704 -2.967,2.995 -5.061,3.874c-2.094,0.879 -4.563,1.318 -7.405,1.318c-3.147,0 -5.924,-0.521 -8.333,-1.562c-2.409,-1.042 -4.21,-2.398 -5.404,-4.069c-1.193,-1.671 -1.898,-3.434 -2.115,-5.29c-0.217,-1.855 -0.326,-5.756 -0.326,-11.701l0,-31.183l13.704,-0l-0,39.515c-0,2.301 0.125,3.771 0.374,4.411c0.25,0.64 0.754,0.96 1.514,0.96c0.868,0 1.427,-0.352 1.676,-1.058c0.25,-0.705 0.374,-2.37 0.374,-4.996l0,-38.832l13.704,-0Z" style="fill:#f00;fill-rule:nonzero;"/><path d="M702.083,20.748l-12.727,0l0,-3.906c0,-1.823 -0.162,-2.984 -0.488,-3.483c-0.325,-0.499 -0.868,-0.748 -1.627,-0.748c-0.825,-0 -1.449,0.336 -1.872,1.009c-0.423,0.674 -0.635,1.694 -0.635,3.062c0,1.759 0.238,3.084 0.714,3.974c0.454,0.89 1.745,1.964 3.872,3.222c6.1,3.621 9.942,6.592 11.527,8.914c1.584,2.322 2.376,6.065 2.376,11.23c-0,3.754 -0.44,6.52 -1.319,8.3c-0.878,1.779 -2.576,3.271 -5.094,4.475c-2.517,1.205 -5.446,1.807 -8.788,1.807c-3.668,0 -6.798,-0.694 -9.391,-2.083c-2.593,-1.389 -4.291,-3.158 -5.094,-5.306c-0.803,-2.148 -1.204,-5.197 -1.204,-9.146l-0,-3.451l12.727,0l-0,6.413c-0,1.974 0.179,3.244 0.537,3.808c0.358,0.564 0.993,0.846 1.904,0.846c0.911,0 1.59,-0.358 2.034,-1.074c0.445,-0.716 0.668,-1.779 0.668,-3.19c-0,-3.103 -0.423,-5.132 -1.27,-6.087c-0.868,-0.955 -3.005,-2.549 -6.412,-4.785c-3.407,-2.256 -5.664,-3.895 -6.771,-4.915c-1.106,-1.02 -2.023,-2.43 -2.75,-4.231c-0.727,-1.801 -1.091,-4.102 -1.091,-6.901c0,-4.036 0.516,-6.987 1.547,-8.853c1.03,-1.867 2.696,-3.326 4.996,-4.378c2.3,-1.053 5.078,-1.579 8.333,-1.579c3.559,-0 6.591,0.575 9.098,1.725c2.506,1.15 4.166,2.599 4.98,4.345c0.814,1.747 1.22,4.715 1.22,8.903l0,2.083Z" style="fill:#f00;fill-rule:nonzero;"/><path d="M748.467,4.799l-9.992,33.624l-0,19.074l-12.695,0l0,-19.074l-9.635,-33.624l12.589,-0c1.967,10.286 3.077,17.208 3.328,20.767c0.76,-5.623 2.032,-12.545 3.817,-20.767l12.588,-0Z" style="fill:#f00;fill-rule:nonzero;"/><path d="M782.124,35.656c0,5.295 -0.124,9.044 -0.374,11.246c-0.249,2.203 -1.031,4.215 -2.344,6.038c-1.312,1.823 -3.086,3.223 -5.322,4.199c-2.235,0.977 -4.839,1.465 -7.812,1.465c-2.821,0 -5.354,-0.461 -7.6,-1.383c-2.246,-0.923 -4.053,-2.306 -5.42,-4.151c-1.367,-1.844 -2.18,-3.851 -2.441,-6.021c-0.26,-2.17 -0.39,-5.968 -0.39,-11.393l-0,-9.016c-0,-5.295 0.124,-9.044 0.374,-11.246c0.249,-2.203 1.031,-4.216 2.343,-6.038c1.313,-1.823 3.087,-3.223 5.322,-4.199c2.236,-0.977 4.84,-1.465 7.812,-1.465c2.821,-0 5.355,0.461 7.601,1.383c2.246,0.922 4.052,2.306 5.42,4.15c1.367,1.845 2.18,3.852 2.441,6.022c0.26,2.17 0.39,5.968 0.39,11.393l0,9.016Zm-13.703,-17.317c-0,-2.452 -0.136,-4.02 -0.407,-4.703c-0.271,-0.684 -0.83,-1.025 -1.676,-1.025c-0.717,-0 -1.264,0.276 -1.644,0.83c-0.38,0.553 -0.57,2.186 -0.57,4.898l0,24.608c0,3.06 0.125,4.948 0.374,5.664c0.25,0.716 0.83,1.074 1.742,1.074c0.933,0 1.53,-0.412 1.79,-1.237c0.261,-0.824 0.391,-2.788 0.391,-5.891l-0,-24.218Z" style="fill:#f00;fill-rule:nonzero;"/><path d="M818.385,4.799l0,35.219c0,3.993 -0.13,6.797 -0.39,8.414c-0.261,1.617 -1.031,3.277 -2.311,4.98c-1.281,1.704 -2.968,2.995 -5.062,3.874c-2.094,0.879 -4.562,1.318 -7.405,1.318c-3.147,0 -5.924,-0.521 -8.333,-1.562c-2.409,-1.042 -4.21,-2.398 -5.403,-4.069c-1.194,-1.671 -1.899,-3.434 -2.116,-5.29c-0.217,-1.855 -0.326,-5.756 -0.326,-11.701l0,-31.183l13.704,-0l0,39.515c0,2.301 0.125,3.771 0.374,4.411c0.25,0.64 0.755,0.96 1.514,0.96c0.868,0 1.427,-0.352 1.676,-1.058c0.25,-0.705 0.375,-2.37 0.375,-4.996l-0,-38.832l13.703,-0Z" style="fill:#f00;fill-rule:nonzero;"/><path d="M823.691,4.799l9.7,-0c6.467,-0 10.845,0.249 13.134,0.748c2.289,0.499 4.156,1.774 5.599,3.825c1.443,2.051 2.164,5.322 2.164,9.814c0,4.101 -0.51,6.857 -1.53,8.267c-1.02,1.411 -3.027,2.257 -6.021,2.539c2.712,0.673 4.535,1.574 5.468,2.702c0.933,1.128 1.514,2.165 1.741,3.109c0.228,0.944 0.342,3.542 0.342,7.795l0,13.899l-12.727,0l0,-17.512c0,-2.821 -0.222,-4.568 -0.667,-5.24c-0.445,-0.673 -1.611,-1.009 -3.499,-1.009l-0,23.761l-13.704,0l-0,-52.698Zm13.704,9.016l-0,11.718c1.54,0 2.62,-0.212 3.238,-0.635c0.619,-0.423 0.928,-1.795 0.928,-4.117l0,-2.897c0,-1.671 -0.298,-2.767 -0.895,-3.288c-0.597,-0.521 -1.687,-0.781 -3.271,-0.781Z" style="fill:#f00;fill-rule:nonzero;"/><path d="M900.379,20.748l-12.727,0l0,-3.906c0,-1.823 -0.163,-2.984 -0.488,-3.483c-0.326,-0.499 -0.868,-0.748 -1.628,-0.748c-0.824,-0 -1.448,0.336 -1.871,1.009c-0.423,0.674 -0.635,1.694 -0.635,3.062c-0,1.759 0.238,3.084 0.714,3.974c0.454,0.89 1.745,1.964 3.872,3.222c6.1,3.621 9.942,6.592 11.526,8.914c1.584,2.322 2.376,6.065 2.376,11.23c0,3.754 -0.439,6.52 -1.318,8.3c-0.879,1.779 -2.577,3.271 -5.094,4.475c-2.517,1.205 -5.447,1.807 -8.788,1.807c-3.668,0 -6.798,-0.694 -9.391,-2.083c-2.593,-1.389 -4.291,-3.158 -5.094,-5.306c-0.803,-2.148 -1.205,-5.197 -1.205,-9.146l0,-3.451l12.727,0l0,6.413c0,1.974 0.179,3.244 0.538,3.808c0.358,0.564 0.992,0.846 1.904,0.846c0.911,0 1.589,-0.358 2.034,-1.074c0.445,-0.716 0.667,-1.779 0.667,-3.19c0,-3.103 -0.423,-5.132 -1.269,-6.087c-0.868,-0.955 -3.006,-2.549 -6.412,-4.785c-3.407,-2.256 -5.664,-3.895 -6.771,-4.915c-1.107,-1.02 -2.023,-2.43 -2.75,-4.231c-0.727,-1.801 -1.091,-4.102 -1.091,-6.901c0,-4.036 0.516,-6.987 1.546,-8.853c1.031,-1.867 2.697,-3.326 4.997,-4.378c2.3,-1.053 5.078,-1.579 8.333,-1.579c3.558,-0 6.591,0.575 9.097,1.725c2.507,1.15 4.167,2.599 4.981,4.345c0.813,1.747 1.22,4.715 1.22,8.903l0,2.083Z" style="fill:#f00;fill-rule:nonzero;"/><path d="M937.128,35.656c0,5.295 -0.124,9.044 -0.374,11.246c-0.249,2.203 -1.031,4.215 -2.344,6.038c-1.312,1.823 -3.086,3.223 -5.322,4.199c-2.235,0.977 -4.839,1.465 -7.812,1.465c-2.821,0 -5.354,-0.461 -7.6,-1.383c-2.246,-0.923 -4.053,-2.306 -5.42,-4.151c-1.367,-1.844 -2.18,-3.851 -2.441,-6.021c-0.26,-2.17 -0.39,-5.968 -0.39,-11.393l-0,-9.016c-0,-5.295 0.124,-9.044 0.374,-11.246c0.249,-2.203 1.031,-4.216 2.343,-6.038c1.313,-1.823 3.087,-3.223 5.322,-4.199c2.236,-0.977 4.84,-1.465 7.812,-1.465c2.821,-0 5.355,0.461 7.601,1.383c2.246,0.922 4.052,2.306 5.42,4.15c1.367,1.845 2.18,3.852 2.441,6.022c0.26,2.17 0.39,5.968 0.39,11.393l0,9.016Zm-13.703,-17.317c-0,-2.452 -0.136,-4.02 -0.407,-4.703c-0.271,-0.684 -0.83,-1.025 -1.676,-1.025c-0.717,-0 -1.264,0.276 -1.644,0.83c-0.38,0.553 -0.57,2.186 -0.57,4.898l0,24.608c0,3.06 0.125,4.948 0.374,5.664c0.25,0.716 0.83,1.074 1.742,1.074c0.933,0 1.53,-0.412 1.79,-1.237c0.261,-0.824 0.391,-2.788 0.391,-5.891l-0,-24.218Z" style="fill:#f00;fill-rule:nonzero;"/><path d="M973.389,4.799l0,35.219c0,3.993 -0.13,6.797 -0.39,8.414c-0.261,1.617 -1.031,3.277 -2.311,4.98c-1.281,1.704 -2.968,2.995 -5.062,3.874c-2.094,0.879 -4.562,1.318 -7.405,1.318c-3.147,0 -5.924,-0.521 -8.333,-1.562c-2.409,-1.042 -4.21,-2.398 -5.403,-4.069c-1.194,-1.671 -1.899,-3.434 -2.116,-5.29c-0.217,-1.855 -0.326,-5.756 -0.326,-11.701l0,-31.183l13.704,-0l0,39.515c0,2.301 0.125,3.771 0.374,4.411c0.25,0.64 0.754,0.96 1.514,0.96c0.868,0 1.427,-0.352 1.676,-1.058c0.25,-0.705 0.375,-2.37 0.375,-4.996l-0,-38.832l13.703,-0Z" style="fill:#f00;fill-rule:nonzero;"/><path d="M992.399,4.799l-0,42.152l8.332,0l0,10.546l-22.036,0l-0,-52.698l13.704,-0Z" style="fill:#f00;fill-rule:nonzero;"/></g><g><path d="M537.738,86.292l-13.704,0l-0,-4.785c-0,-3.016 -0.13,-4.904 -0.391,-5.663c-0.26,-0.76 -0.879,-1.14 -1.855,-1.14c-0.846,0 -1.421,0.326 -1.725,0.977c-0.304,0.651 -0.456,2.322 -0.456,5.013l0,25.291c0,2.365 0.152,3.922 0.456,4.671c0.304,0.749 0.911,1.123 1.823,1.123c0.998,-0 1.676,-0.423 2.034,-1.269c0.358,-0.847 0.537,-2.496 0.537,-4.948l0,-6.25l-2.767,0l0,-8.007l16.048,-0l-0,28.286l-8.612,0l-1.267,-3.776c-0.934,1.628 -2.112,2.848 -3.535,3.662c-1.422,0.814 -3.1,1.221 -5.032,1.221c-2.302,-0 -4.458,-0.559 -6.467,-1.677c-2.008,-1.117 -3.534,-2.501 -4.576,-4.15c-1.043,-1.649 -1.694,-3.38 -1.955,-5.191c-0.26,-1.812 -0.391,-4.53 -0.391,-8.154l0,-15.657c0,-5.034 0.272,-8.691 0.814,-10.969c0.543,-2.279 2.1,-4.368 4.671,-6.266c2.572,-1.899 5.897,-2.848 9.977,-2.848c4.014,-0 7.345,0.824 9.993,2.473c2.647,1.65 4.372,3.608 5.175,5.876c0.803,2.267 1.205,5.56 1.205,9.879l-0,2.278Z" style="fill:#fff;fill-rule:nonzero;"/><rect x="543.043" y="66.892" width="13.704" height="52.699" style="fill:#fff;fill-rule:nonzero;"/><path d="M594.831,66.892l-6.974,52.699l-20.816,0l-7.918,-52.699l14.452,0c1.68,14.517 2.879,26.799 3.597,36.847c0.708,-10.155 1.46,-19.171 2.255,-27.047l0.951,-9.8l14.453,0Z" style="fill:#fff;fill-rule:nonzero;"/><path d="M597.142,66.892l22.85,0l-0,10.547l-9.147,-0l0,9.992l8.561,0l-0,10.026l-8.561,-0l0,11.588l10.058,-0l0,10.546l-23.761,0l-0,-52.699Z" style="fill:#fff;fill-rule:nonzero;"/><path d="M667.743,66.892l0,35.22c0,3.992 -0.13,6.797 -0.391,8.414c-0.26,1.616 -1.03,3.277 -2.311,4.98c-1.28,1.703 -2.967,2.995 -5.061,3.873c-2.094,0.879 -4.563,1.319 -7.405,1.319c-3.147,-0 -5.924,-0.521 -8.333,-1.563c-2.409,-1.041 -4.21,-2.398 -5.404,-4.068c-1.193,-1.671 -1.898,-3.434 -2.115,-5.29c-0.217,-1.855 -0.326,-5.756 -0.326,-11.702l0,-31.183l13.704,0l-0,39.516c-0,2.3 0.125,3.771 0.374,4.411c0.25,0.64 0.754,0.96 1.514,0.96c0.868,-0 1.427,-0.353 1.676,-1.058c0.25,-0.705 0.374,-2.371 0.374,-4.996l0,-38.833l13.704,0Z" style="fill:#fff;fill-rule:nonzero;"/><path d="M702.083,82.842l-12.727,-0l0,-3.906c0,-1.823 -0.162,-2.984 -0.488,-3.483c-0.325,-0.499 -0.868,-0.749 -1.627,-0.749c-0.825,0 -1.449,0.337 -1.872,1.01c-0.423,0.673 -0.635,1.694 -0.635,3.062c0,1.759 0.238,3.083 0.714,3.974c0.454,0.89 1.745,1.964 3.872,3.222c6.1,3.62 9.942,6.592 11.527,8.913c1.584,2.322 2.376,6.066 2.376,11.23c-0,3.754 -0.44,6.521 -1.319,8.301c-0.878,1.779 -2.576,3.271 -5.094,4.475c-2.517,1.205 -5.446,1.807 -8.788,1.807c-3.668,-0 -6.798,-0.695 -9.391,-2.083c-2.593,-1.389 -4.291,-3.158 -5.094,-5.306c-0.803,-2.148 -1.204,-5.197 -1.204,-9.147l-0,-3.45l12.727,-0l-0,6.412c-0,1.975 0.179,3.244 0.537,3.809c0.358,0.564 0.993,0.846 1.904,0.846c0.911,-0 1.59,-0.358 2.034,-1.074c0.445,-0.716 0.668,-1.78 0.668,-3.19c-0,-3.103 -0.423,-5.132 -1.27,-6.087c-0.868,-0.955 -3.005,-2.55 -6.412,-4.785c-3.407,-2.257 -5.664,-3.895 -6.771,-4.915c-1.106,-1.02 -2.023,-2.43 -2.75,-4.231c-0.727,-1.802 -1.091,-4.102 -1.091,-6.901c0,-4.036 0.516,-6.988 1.547,-8.854c1.03,-1.866 2.696,-3.325 4.996,-4.378c2.3,-1.052 5.078,-1.578 8.333,-1.578c3.559,-0 6.591,0.575 9.098,1.725c2.506,1.15 4.166,2.598 4.98,4.345c0.814,1.747 1.22,4.715 1.22,8.903l0,2.083Z" style="fill:#fff;fill-rule:nonzero;"/><path d="M748.467,66.892l-9.992,33.625l-0,19.074l-12.695,0l0,-19.074l-9.635,-33.625l12.589,0c1.967,10.286 3.077,17.209 3.328,20.767c0.76,-5.622 2.032,-12.545 3.817,-20.767l12.588,0Z" style="fill:#fff;fill-rule:nonzero;"/><path d="M782.124,97.75c0,5.295 -0.124,9.043 -0.374,11.246c-0.249,2.203 -1.031,4.215 -2.344,6.038c-1.312,1.823 -3.086,3.222 -5.322,4.199c-2.235,0.976 -4.839,1.465 -7.812,1.465c-2.821,-0 -5.354,-0.461 -7.6,-1.384c-2.246,-0.922 -4.053,-2.305 -5.42,-4.15c-1.367,-1.844 -2.18,-3.852 -2.441,-6.022c-0.26,-2.17 -0.39,-5.967 -0.39,-11.392l-0,-9.017c-0,-5.294 0.124,-9.043 0.374,-11.246c0.249,-2.202 1.031,-4.215 2.343,-6.038c1.313,-1.823 3.087,-3.222 5.322,-4.199c2.236,-0.976 4.84,-1.464 7.812,-1.464c2.821,-0 5.355,0.461 7.601,1.383c2.246,0.922 4.052,2.306 5.42,4.15c1.367,1.845 2.18,3.852 2.441,6.022c0.26,2.17 0.39,5.967 0.39,11.392l0,9.017Zm-13.703,-17.317c-0,-2.452 -0.136,-4.02 -0.407,-4.703c-0.271,-0.684 -0.83,-1.026 -1.676,-1.026c-0.717,0 -1.264,0.277 -1.644,0.83c-0.38,0.554 -0.57,2.187 -0.57,4.899l0,24.608c0,3.06 0.125,4.948 0.374,5.664c0.25,0.716 0.83,1.074 1.742,1.074c0.933,-0 1.53,-0.412 1.79,-1.237c0.261,-0.825 0.391,-2.788 0.391,-5.891l-0,-24.218Z" style="fill:#fff;fill-rule:nonzero;"/><path d="M818.385,66.892l0,35.22c0,3.992 -0.13,6.797 -0.39,8.414c-0.261,1.616 -1.031,3.277 -2.311,4.98c-1.281,1.703 -2.968,2.995 -5.062,3.873c-2.094,0.879 -4.562,1.319 -7.405,1.319c-3.147,-0 -5.924,-0.521 -8.333,-1.563c-2.409,-1.041 -4.21,-2.398 -5.403,-4.068c-1.194,-1.671 -1.899,-3.434 -2.116,-5.29c-0.217,-1.855 -0.326,-5.756 -0.326,-11.702l0,-31.183l13.704,0l0,39.516c0,2.3 0.125,3.771 0.374,4.411c0.25,0.64 0.755,0.96 1.514,0.96c0.868,-0 1.427,-0.353 1.676,-1.058c0.25,-0.705 0.375,-2.371 0.375,-4.996l-0,-38.833l13.703,0Z" style="fill:#fff;fill-rule:nonzero;"/><path d="M823.691,66.892l9.7,0c6.467,0 10.845,0.25 13.134,0.749c2.289,0.499 4.156,1.774 5.599,3.825c1.443,2.05 2.164,5.322 2.164,9.813c0,4.102 -0.51,6.858 -1.53,8.268c-1.02,1.411 -3.027,2.257 -6.021,2.539c2.712,0.673 4.535,1.573 5.468,2.702c0.933,1.128 1.514,2.164 1.741,3.108c0.228,0.944 0.342,3.543 0.342,7.796l0,13.899l-12.727,0l0,-17.512c0,-2.821 -0.222,-4.568 -0.667,-5.241c-0.445,-0.672 -1.611,-1.009 -3.499,-1.009l-0,23.762l-13.704,0l-0,-52.699Zm13.704,9.017l-0,11.718c1.54,-0 2.62,-0.212 3.238,-0.635c0.619,-0.423 0.928,-1.796 0.928,-4.118l0,-2.897c0,-1.67 -0.298,-2.766 -0.895,-3.287c-0.597,-0.521 -1.687,-0.781 -3.271,-0.781Z" style="fill:#fff;fill-rule:nonzero;"/><path d="M900.379,82.842l-12.727,-0l0,-3.906c0,-1.823 -0.163,-2.984 -0.488,-3.483c-0.326,-0.499 -0.868,-0.749 -1.628,-0.749c-0.824,0 -1.448,0.337 -1.871,1.01c-0.423,0.673 -0.635,1.694 -0.635,3.062c-0,1.759 0.238,3.083 0.714,3.974c0.454,0.89 1.745,1.964 3.872,3.222c6.1,3.62 9.942,6.592 11.526,8.913c1.584,2.322 2.376,6.066 2.376,11.23c0,3.754 -0.439,6.521 -1.318,8.301c-0.879,1.779 -2.577,3.271 -5.094,4.475c-2.517,1.205 -5.447,1.807 -8.788,1.807c-3.668,-0 -6.798,-0.695 -9.391,-2.083c-2.593,-1.389 -4.291,-3.158 -5.094,-5.306c-0.803,-2.148 -1.205,-5.197 -1.205,-9.147l0,-3.45l12.727,-0l0,6.412c0,1.975 0.179,3.244 0.538,3.809c0.358,0.564 0.992,0.846 1.904,0.846c0.911,-0 1.589,-0.358 2.034,-1.074c0.445,-0.716 0.667,-1.78 0.667,-3.19c0,-3.103 -0.423,-5.132 -1.269,-6.087c-0.868,-0.955 -3.006,-2.55 -6.412,-4.785c-3.407,-2.257 -5.664,-3.895 -6.771,-4.915c-1.107,-1.02 -2.023,-2.43 -2.75,-4.231c-0.727,-1.802 -1.091,-4.102 -1.091,-6.901c0,-4.036 0.516,-6.988 1.546,-8.854c1.031,-1.866 2.697,-3.325 4.997,-4.378c2.3,-1.052 5.078,-1.578 8.333,-1.578c3.558,-0 6.591,0.575 9.097,1.725c2.507,1.15 4.167,2.598 4.981,4.345c0.813,1.747 1.22,4.715 1.22,8.903l0,2.083Z" style="fill:#fff;fill-rule:nonzero;"/><path d="M937.128,97.75c0,5.295 -0.124,9.043 -0.374,11.246c-0.249,2.203 -1.031,4.215 -2.344,6.038c-1.312,1.823 -3.086,3.222 -5.322,4.199c-2.235,0.976 -4.839,1.465 -7.812,1.465c-2.821,-0 -5.354,-0.461 -7.6,-1.384c-2.246,-0.922 -4.053,-2.305 -5.42,-4.15c-1.367,-1.844 -2.18,-3.852 -2.441,-6.022c-0.26,-2.17 -0.39,-5.967 -0.39,-11.392l-0,-9.017c-0,-5.294 0.124,-9.043 0.374,-11.246c0.249,-2.202 1.031,-4.215 2.343,-6.038c1.313,-1.823 3.087,-3.222 5.322,-4.199c2.236,-0.976 4.84,-1.464 7.812,-1.464c2.821,-0 5.355,0.461 7.601,1.383c2.246,0.922 4.052,2.306 5.42,4.15c1.367,1.845 2.18,3.852 2.441,6.022c0.26,2.17 0.39,5.967 0.39,11.392l0,9.017Zm-13.703,-17.317c-0,-2.452 -0.136,-4.02 -0.407,-4.703c-0.271,-0.684 -0.83,-1.026 -1.676,-1.026c-0.717,0 -1.264,0.277 -1.644,0.83c-0.38,0.554 -0.57,2.187 -0.57,4.899l0,24.608c0,3.06 0.125,4.948 0.374,5.664c0.25,0.716 0.83,1.074 1.742,1.074c0.933,-0 1.53,-0.412 1.79,-1.237c0.261,-0.825 0.391,-2.788 0.391,-5.891l-0,-24.218Z" style="fill:#fff;fill-rule:nonzero;"/><path d="M973.389,66.892l0,35.22c0,3.992 -0.13,6.797 -0.39,8.414c-0.261,1.616 -1.031,3.277 -2.311,4.98c-1.281,1.703 -2.968,2.995 -5.062,3.873c-2.094,0.879 -4.562,1.319 -7.405,1.319c-3.147,-0 -5.924,-0.521 -8.333,-1.563c-2.409,-1.041 -4.21,-2.398 -5.403,-4.068c-1.194,-1.671 -1.899,-3.434 -2.116,-5.29c-0.217,-1.855 -0.326,-5.756 -0.326,-11.702l0,-31.183l13.704,0l0,39.516c0,2.3 0.125,3.771 0.374,4.411c0.25,0.64 0.754,0.96 1.514,0.96c0.868,-0 1.427,-0.353 1.676,-1.058c0.25,-0.705 0.375,-2.371 0.375,-4.996l-0,-38.833l13.703,0Z" style="fill:#fff;fill-rule:nonzero;"/><path d="M992.399,66.892l-0,42.153l8.332,-0l0,10.546l-22.036,0l-0,-52.699l13.704,0Z" style="fill:#fff;fill-rule:nonzero;"/></g><g><path d="M35.526,86.292l-13.704,0l0,-4.785c0,-3.016 -0.13,-4.904 -0.39,-5.663c-0.261,-0.76 -0.879,-1.14 -1.856,-1.14c-0.846,0 -1.421,0.326 -1.725,0.977c-0.304,0.651 -0.456,2.322 -0.456,5.013l0,25.291c0,2.365 0.152,3.922 0.456,4.671c0.304,0.749 0.912,1.123 1.823,1.123c0.998,-0 1.676,-0.423 2.034,-1.269c0.358,-0.847 0.537,-2.496 0.537,-4.948l0,-6.25l-2.766,0l-0,-8.007l16.047,-0l-0,28.286l-8.612,0l-1.267,-3.776c-0.934,1.628 -2.112,2.848 -3.534,3.662c-1.423,0.814 -3.1,1.221 -5.033,1.221c-2.302,-0 -4.458,-0.559 -6.466,-1.677c-2.009,-1.117 -3.534,-2.501 -4.577,-4.15c-1.042,-1.649 -1.694,-3.38 -1.954,-5.191c-0.261,-1.812 -0.391,-4.53 -0.391,-8.154l-0,-15.657c-0,-5.034 0.271,-8.691 0.814,-10.969c0.542,-2.279 2.099,-4.368 4.671,-6.266c2.571,-1.899 5.897,-2.848 9.976,-2.848c4.015,-0 7.346,0.824 9.993,2.473c2.648,1.65 4.373,3.608 5.176,5.876c0.802,2.267 1.204,5.56 1.204,9.879l-0,2.278Z" style="fill:#f00;fill-rule:nonzero;"/><rect x="40.832" y="66.892" width="13.704" height="52.699" style="fill:#f00;fill-rule:nonzero;"/><path d="M92.619,66.892l-6.974,52.699l-20.816,0l-7.918,-52.699l14.453,0c1.679,14.517 2.878,26.799 3.596,36.847c0.708,-10.155 1.46,-19.171 2.255,-27.047l0.952,-9.8l14.452,0Z" style="fill:#f00;fill-rule:nonzero;"/><path d="M94.93,66.892l22.85,0l0,10.547l-9.146,-0l-0,9.992l8.56,0l0,10.026l-8.56,-0l-0,11.588l10.058,-0l-0,10.546l-23.762,0l0,-52.699Z" style="fill:#f00;fill-rule:nonzero;"/><path d="M165.531,66.892l0,35.22c0,3.992 -0.13,6.797 -0.39,8.414c-0.261,1.616 -1.031,3.277 -2.311,4.98c-1.281,1.703 -2.968,2.995 -5.062,3.873c-2.094,0.879 -4.562,1.319 -7.405,1.319c-3.147,-0 -5.924,-0.521 -8.333,-1.563c-2.409,-1.041 -4.21,-2.398 -5.403,-4.068c-1.194,-1.671 -1.899,-3.434 -2.116,-5.29c-0.217,-1.855 -0.325,-5.756 -0.325,-11.702l-0,-31.183l13.703,0l0,39.516c0,2.3 0.125,3.771 0.375,4.411c0.249,0.64 0.754,0.96 1.513,0.96c0.868,-0 1.427,-0.353 1.676,-1.058c0.25,-0.705 0.375,-2.371 0.375,-4.996l-0,-38.833l13.703,0Z" style="fill:#f00;fill-rule:nonzero;"/><path d="M199.872,82.842l-12.727,-0l-0,-3.906c-0,-1.823 -0.163,-2.984 -0.489,-3.483c-0.325,-0.499 -0.868,-0.749 -1.627,-0.749c-0.825,0 -1.449,0.337 -1.872,1.01c-0.423,0.673 -0.634,1.694 -0.634,3.062c-0,1.759 0.237,3.083 0.713,3.974c0.454,0.89 1.745,1.964 3.873,3.222c6.1,3.62 9.942,6.592 11.526,8.913c1.584,2.322 2.376,6.066 2.376,11.23c0,3.754 -0.439,6.521 -1.318,8.301c-0.879,1.779 -2.577,3.271 -5.094,4.475c-2.518,1.205 -5.447,1.807 -8.789,1.807c-3.667,-0 -6.797,-0.695 -9.391,-2.083c-2.593,-1.389 -4.291,-3.158 -5.094,-5.306c-0.803,-2.148 -1.204,-5.197 -1.204,-9.147l-0,-3.45l12.727,-0l0,6.412c0,1.975 0.179,3.244 0.537,3.809c0.358,0.564 0.993,0.846 1.904,0.846c0.912,-0 1.59,-0.358 2.035,-1.074c0.445,-0.716 0.667,-1.78 0.667,-3.19c0,-3.103 -0.423,-5.132 -1.269,-6.087c-0.868,-0.955 -3.006,-2.55 -6.413,-4.785c-3.407,-2.257 -5.664,-3.895 -6.77,-4.915c-1.107,-1.02 -2.024,-2.43 -2.751,-4.231c-0.727,-1.802 -1.09,-4.102 -1.09,-6.901c-0,-4.036 0.515,-6.988 1.546,-8.854c1.031,-1.866 2.696,-3.325 4.996,-4.378c2.301,-1.052 5.078,-1.578 8.333,-1.578c3.559,-0 6.592,0.575 9.098,1.725c2.506,1.15 4.166,2.598 4.98,4.345c0.814,1.747 1.221,4.715 1.221,8.903l-0,2.083Z" style="fill:#f00;fill-rule:nonzero;"/><path d="M246.256,66.892l-9.993,33.625l-0,19.074l-12.695,0l0,-19.074l-9.634,-33.625l12.588,0c1.968,10.286 3.077,17.209 3.329,20.767c0.759,-5.622 2.031,-12.545 3.816,-20.767l12.589,0Z" style="fill:#f00;fill-rule:nonzero;"/><path d="M279.913,97.75c-0,5.295 -0.125,9.043 -0.375,11.246c-0.249,2.203 -1.03,4.215 -2.343,6.038c-1.313,1.823 -3.087,3.222 -5.322,4.199c-2.235,0.976 -4.839,1.465 -7.812,1.465c-2.821,-0 -5.355,-0.461 -7.601,-1.384c-2.246,-0.922 -4.052,-2.305 -5.419,-4.15c-1.367,-1.844 -2.181,-3.852 -2.442,-6.022c-0.26,-2.17 -0.39,-5.967 -0.39,-11.392l-0,-9.017c-0,-5.294 0.125,-9.043 0.374,-11.246c0.25,-2.202 1.031,-4.215 2.344,-6.038c1.313,-1.823 3.087,-3.222 5.322,-4.199c2.235,-0.976 4.839,-1.464 7.812,-1.464c2.821,-0 5.354,0.461 7.6,1.383c2.246,0.922 4.053,2.306 5.42,4.15c1.367,1.845 2.181,3.852 2.441,6.022c0.261,2.17 0.391,5.967 0.391,11.392l-0,9.017Zm-13.704,-17.317c0,-2.452 -0.136,-4.02 -0.407,-4.703c-0.271,-0.684 -0.83,-1.026 -1.676,-1.026c-0.716,0 -1.264,0.277 -1.644,0.83c-0.38,0.554 -0.57,2.187 -0.57,4.899l0,24.608c0,3.06 0.125,4.948 0.375,5.664c0.249,0.716 0.83,1.074 1.741,1.074c0.933,-0 1.53,-0.412 1.791,-1.237c0.26,-0.825 0.39,-2.788 0.39,-5.891l0,-24.218Z" style="fill:#f00;fill-rule:nonzero;"/><path d="M316.174,66.892l-0,35.22c-0,3.992 -0.131,6.797 -0.391,8.414c-0.26,1.616 -1.031,3.277 -2.311,4.98c-1.28,1.703 -2.968,2.995 -5.062,3.873c-2.094,0.879 -4.562,1.319 -7.405,1.319c-3.146,-0 -5.924,-0.521 -8.333,-1.563c-2.408,-1.041 -4.209,-2.398 -5.403,-4.068c-1.193,-1.671 -1.899,-3.434 -2.116,-5.29c-0.217,-1.855 -0.325,-5.756 -0.325,-11.702l-0,-31.183l13.703,0l0,39.516c0,2.3 0.125,3.771 0.375,4.411c0.249,0.64 0.754,0.96 1.513,0.96c0.868,-0 1.427,-0.353 1.677,-1.058c0.249,-0.705 0.374,-2.371 0.374,-4.996l0,-38.833l13.704,0Z" style="fill:#f00;fill-rule:nonzero;"/><path d="M321.479,66.892l9.7,0c6.467,0 10.845,0.25 13.134,0.749c2.29,0.499 4.156,1.774 5.599,3.825c1.443,2.05 2.165,5.322 2.165,9.813c-0,4.102 -0.51,6.858 -1.53,8.268c-1.02,1.411 -3.028,2.257 -6.022,2.539c2.712,0.673 4.535,1.573 5.468,2.702c0.933,1.128 1.514,2.164 1.742,3.108c0.228,0.944 0.342,3.543 0.342,7.796l-0,13.899l-12.728,0l0,-17.512c0,-2.821 -0.222,-4.568 -0.667,-5.241c-0.445,-0.672 -1.611,-1.009 -3.499,-1.009l-0,23.762l-13.704,0l0,-52.699Zm13.704,9.017l-0,11.718c1.541,-0 2.62,-0.212 3.239,-0.635c0.618,-0.423 0.927,-1.796 0.927,-4.118l0,-2.897c0,-1.67 -0.298,-2.766 -0.895,-3.287c-0.596,-0.521 -1.687,-0.781 -3.271,-0.781Z" style="fill:#f00;fill-rule:nonzero;"/><path d="M398.168,82.842l-12.728,-0l0,-3.906c0,-1.823 -0.162,-2.984 -0.488,-3.483c-0.325,-0.499 -0.868,-0.749 -1.627,-0.749c-0.825,0 -1.449,0.337 -1.872,1.01c-0.423,0.673 -0.635,1.694 -0.635,3.062c0,1.759 0.238,3.083 0.714,3.974c0.454,0.89 1.745,1.964 3.872,3.222c6.1,3.62 9.943,6.592 11.527,8.913c1.584,2.322 2.376,6.066 2.376,11.23c-0,3.754 -0.44,6.521 -1.318,8.301c-0.879,1.779 -2.577,3.271 -5.095,4.475c-2.517,1.205 -5.446,1.807 -8.788,1.807c-3.667,-0 -6.798,-0.695 -9.391,-2.083c-2.593,-1.389 -4.291,-3.158 -5.094,-5.306c-0.803,-2.148 -1.204,-5.197 -1.204,-9.147l-0,-3.45l12.727,-0l-0,6.412c-0,1.975 0.179,3.244 0.537,3.809c0.358,0.564 0.993,0.846 1.904,0.846c0.911,-0 1.59,-0.358 2.034,-1.074c0.445,-0.716 0.668,-1.78 0.668,-3.19c-0,-3.103 -0.423,-5.132 -1.27,-6.087c-0.868,-0.955 -3.005,-2.55 -6.412,-4.785c-3.407,-2.257 -5.664,-3.895 -6.771,-4.915c-1.106,-1.02 -2.023,-2.43 -2.75,-4.231c-0.727,-1.802 -1.09,-4.102 -1.09,-6.901c-0,-4.036 0.515,-6.988 1.546,-8.854c1.03,-1.866 2.696,-3.325 4.996,-4.378c2.3,-1.052 5.078,-1.578 8.333,-1.578c3.559,-0 6.591,0.575 9.098,1.725c2.506,1.15 4.166,2.598 4.98,4.345c0.814,1.747 1.221,4.715 1.221,8.903l-0,2.083Z" style="fill:#f00;fill-rule:nonzero;"/><path d="M434.917,97.75c-0,5.295 -0.125,9.043 -0.375,11.246c-0.249,2.203 -1.03,4.215 -2.343,6.038c-1.313,1.823 -3.087,3.222 -5.322,4.199c-2.235,0.976 -4.839,1.465 -7.812,1.465c-2.821,-0 -5.355,-0.461 -7.601,-1.384c-2.246,-0.922 -4.052,-2.305 -5.419,-4.15c-1.367,-1.844 -2.181,-3.852 -2.442,-6.022c-0.26,-2.17 -0.39,-5.967 -0.39,-11.392l-0,-9.017c-0,-5.294 0.125,-9.043 0.374,-11.246c0.25,-2.202 1.031,-4.215 2.344,-6.038c1.313,-1.823 3.087,-3.222 5.322,-4.199c2.235,-0.976 4.839,-1.464 7.812,-1.464c2.821,-0 5.354,0.461 7.6,1.383c2.246,0.922 4.053,2.306 5.42,4.15c1.367,1.845 2.181,3.852 2.441,6.022c0.261,2.17 0.391,5.967 0.391,11.392l-0,9.017Zm-13.704,-17.317c0,-2.452 -0.136,-4.02 -0.407,-4.703c-0.271,-0.684 -0.83,-1.026 -1.676,-1.026c-0.716,0 -1.264,0.277 -1.644,0.83c-0.38,0.554 -0.57,2.187 -0.57,4.899l0,24.608c0,3.06 0.125,4.948 0.375,5.664c0.249,0.716 0.83,1.074 1.741,1.074c0.933,-0 1.53,-0.412 1.791,-1.237c0.26,-0.825 0.39,-2.788 0.39,-5.891l0,-24.218Z" style="fill:#f00;fill-rule:nonzero;"/><path d="M471.178,66.892l-0,35.22c-0,3.992 -0.131,6.797 -0.391,8.414c-0.26,1.616 -1.031,3.277 -2.311,4.98c-1.28,1.703 -2.968,2.995 -5.062,3.873c-2.094,0.879 -4.562,1.319 -7.405,1.319c-3.146,-0 -5.924,-0.521 -8.333,-1.563c-2.408,-1.041 -4.209,-2.398 -5.403,-4.068c-1.193,-1.671 -1.899,-3.434 -2.116,-5.29c-0.217,-1.855 -0.325,-5.756 -0.325,-11.702l-0,-31.183l13.703,0l0,39.516c0,2.3 0.125,3.771 0.375,4.411c0.249,0.64 0.754,0.96 1.513,0.96c0.868,-0 1.427,-0.353 1.677,-1.058c0.249,-0.705 0.374,-2.371 0.374,-4.996l0,-38.833l13.704,0Z" style="fill:#f00;fill-rule:nonzero;"/><path d="M490.187,66.892l-0,42.153l8.333,-0l-0,10.546l-22.037,0l0,-52.699l13.704,0Z" style="fill:#f00;fill-rule:nonzero;"/></g><rect x="498.52" y="4.024" width="7.384" height="115.56"/><path d="M450.902,0l-0,3.692l115.56,-0l-0,-3.692l-115.56,0Z"/><path d="M450.902,120.698l-0,3.692l115.56,-0l-0,-3.692l-115.56,-0Z"/><rect x="1000.73" y="3.692" width="3.692" height="115.56"/><rect x="0" y="0" width="3.692" height="115.56"/><path d="M445.412,58.604l0,7.384l115.56,-0l-0,-7.384l-115.56,0Z"/></svg>