<?xml version="1.0" encoding="UTF-8" standalone="no"?><!DOCTYPE svg PUBLIC "-//W3C//DTD SVG 1.1//EN" "http://www.w3.org/Graphics/SVG/1.1/DTD/svg11.dtd"><svg width="100%" height="100%" viewBox="0 0 512 512" version="1.1" xmlns="http://www.w3.org/2000/svg" xmlns:xlink="http://www.w3.org/1999/xlink" xml:space="preserve" xmlns:serif="http://www.serif.com/" style="fill-rule:evenodd;clip-rule:evenodd;stroke-linecap:round;stroke-linejoin:round;stroke-miterlimit:1.5;"><path d="M74.981,74.981c99.907,-99.908 262.131,-99.908 362.038,-0c99.908,99.907 99.908,262.131 0,362.038c-99.907,99.908 -262.131,99.908 -362.038,0c-99.908,-99.907 -99.908,-262.131 -0,-362.038Zm21.213,21.213c-88.2,88.199 -88.2,231.413 -0,319.612c88.199,88.2 231.413,88.2 319.612,0c88.2,-88.199 88.2,-231.413 0,-319.612c-88.199,-88.2 -231.413,-88.2 -319.612,-0Z" style="fill:#f00;"/><path d="M182.249,120.298c58.563,-31.831 133.435,-22.994 182.941,26.512c49.506,49.506 58.343,124.378 26.512,182.941l-209.453,-209.453Z" style="fill:none;stroke:#f00;stroke-width:30px;"/><path d="M329.751,391.702c-58.563,31.831 -133.435,22.994 -182.941,-26.512c-49.506,-49.506 -58.343,-124.378 -26.512,-182.941l209.453,209.453Z" style="fill:none;stroke:#f00;stroke-width:30px;"/></svg>